<?xml version="1.0" encoding="UTF-8"?>
<svg width="15px" height="15px" viewBox="0 0 15 15" version="1.1" xmlns="http://www.w3.org/2000/svg" xmlns:xlink="http://www.w3.org/1999/xlink">
    <!-- Generator: Sketch 62 (91390) - https://sketch.com -->
    <title>Path</title>
    <desc>Created with Sketch.</desc>
    <g id="Symbols" stroke="none" stroke-width="1" fill="none" fill-rule="evenodd">
        <g id="Icon/Micro/Contact" fill="#FFFFFF">
            <path d="M7.50065436,0 L7.42965077,0.00213345476 C6.92630464,0.00594723021 6.49233726,0.0413407127 5.89297008,0.172936777 C4.97252869,0.375027361 4.06894413,0.749727394 3.22332289,1.34120835 C2.865639,1.59139508 2.524222,1.87698926 2.20129821,2.1998855 C-0.734738112,5.13573837 -0.73166226,9.87211298 2.19790292,12.8013751 C4.4693722,15.0726501 7.88181424,15.6184229 10.7088395,14.2787454 L10.8498292,14.2059765 C11.9485686,13.5906619 12.3427484,12.1944434 11.7244208,11.0983043 L11.7001044,11.0583784 L11.7508613,11.0772068 C11.9276778,11.1233687 12.1238203,11.0771288 12.2622659,10.9384091 C12.6699701,10.5310772 12.7357588,9.89739303 12.4246224,9.41487786 L12.3216318,9.27697998 L11.2505281,8.20153297 C10.6948456,7.64592323 9.81297665,7.61115064 9.21677086,8.09719558 L9.08565881,8.21720867 C8.98459585,8.31828453 8.83097289,8.37905057 8.56946791,8.40889845 C8.15606157,8.45605276 7.74779907,8.31155086 7.44697378,8.01069792 L7.05814217,7.62206876 C6.70211122,7.26591517 6.56514647,6.75433267 6.69889618,6.28796046 C6.728506,6.18468468 6.76422087,6.10701678 6.80934177,6.04543246 L6.85772027,5.98885658 C7.45010597,5.39651437 7.45010597,4.43300154 6.85744724,3.84038589 L5.65393611,2.63838238 L5.5517513,2.55336289 C5.07020634,2.19601981 4.39315944,2.24165427 3.96328855,2.6717081 L3.28878141,3.3461662 C2.70755556,3.92734981 2.42103715,4.63641082 2.43336354,5.42941552 C2.44161999,5.97306308 2.58448219,6.54238078 2.83982335,7.16061954 C3.07002094,7.71864961 3.40942479,8.22432999 3.84737899,8.66237478 L6.4078109,11.2226496 C7.03598211,11.8507443 7.81765736,12.2859177 8.66106636,12.4707572 L8.8694576,12.5108684 C9.55142854,12.6233618 10.1767155,12.5387396 10.7437045,12.2460238 L10.948153,12.1286458 L10.9513983,12.1603522 C10.9726325,12.6382967 10.7082437,13.1010999 10.2529406,13.316802 C9.38955998,13.725935 8.464045,13.933285 7.50065436,13.933285 C3.95270611,13.933285 1.06587638,11.0466131 1.06587638,7.49897476 C1.06587638,5.78430585 1.73598906,4.17052851 2.95406471,2.95254139 C4.17221025,1.73462433 5.78614142,1.06449029 7.50065436,1.06449029 C11.0486331,1.06449029 13.9354033,3.95107662 13.9354033,7.4988296 C13.9354033,8.63015896 13.6378218,9.7426386 13.0750308,10.7156684 C12.9279041,10.9699956 13.0147055,11.2954237 13.268916,11.4427444 C13.5237339,11.5899798 13.8492266,11.5029643 13.9963736,11.2485632 C14.6530489,10.1137529 15,8.81723767 15,7.4988296 C15,5.49620543 14.2195956,3.6123034 12.8033613,2.19647187 C11.3872322,0.780415698 9.50328494,0 7.50065436,0 Z M4.93584527,3.42440739 L6.10465062,4.59312779 C6.28205835,4.77033327 6.28205835,5.0593278 6.10474202,5.23644193 C5.90420274,5.43730909 5.76353627,5.68738044 5.67564,5.99478001 C5.43500055,6.83321747 5.676056,7.74521352 6.30536492,8.37483001 L6.6942334,8.76335086 C7.22483713,9.29388387 7.95282457,9.55061744 8.6903381,9.46643487 C9.12386592,9.41692804 9.46136268,9.29026672 9.72803683,9.07015501 L9.85387188,8.95424493 C10.0312852,8.77697707 10.320287,8.77697707 10.49768,8.95428147 L11.5096812,9.96609291 C11.5700283,10.0264923 11.5700283,10.1255623 11.5095271,10.1861612 L11.4479463,10.2597757 C11.358142,10.3892864 11.3324927,10.5499359 11.3710382,10.6973148 L11.392356,10.7583938 L11.3743056,10.7510442 C11.1893896,10.685597 10.9723374,10.7238461 10.8195638,10.8759299 C10.2434906,11.4519866 9.61045919,11.6173391 8.78087364,11.4056567 C8.17995522,11.2522384 7.61940697,10.928877 7.16049235,10.4699958 L4.60005338,7.90977194 C4.26316737,7.57288271 4.00089965,7.18430558 3.82386435,6.75476389 C3.75927702,6.59836448 3.70441021,6.44885807 3.65899004,6.30557766 C3.35985116,5.36055387 3.46302447,4.67704695 4.04119701,4.09894073 L4.71600754,3.42444051 C4.77663206,3.36371753 4.8748111,3.36337765 4.93584527,3.42440739 Z" id="Path"></path>
        </g>
    </g>
</svg>