<?xml version="1.0" encoding="UTF-8"?>
<svg width="20px" height="20px" viewBox="0 0 20 20" version="1.1" xmlns="http://www.w3.org/2000/svg" xmlns:xlink="http://www.w3.org/1999/xlink">
    <title>37EF73F0-DCDE-4794-8BD3-031F34425CC0</title>
    <g id="Sub-Nav" stroke="none" stroke-width="1" fill="none" fill-rule="evenodd">
        <g id="001_Header_Mobile-Copy" transform="translate(-335.000000, -143.000000)">
            <g id="Icon/Megal/Arrow/Active/Right" transform="translate(335.000000, 143.000000)">
                <rect id="Rectangle" fill-opacity="0" fill="#FFFFFF" x="0" y="0" width="20" height="20"></rect>
                <path d="M0.906163679,4.90616368 C1.32898697,4.48334039 2.0006922,4.46108653 2.4497136,4.83940211 L2.52240775,4.90616368 L10.2857143,12.6691429 L18.0490208,4.90616368 C18.4718441,4.48334039 19.1435493,4.46108653 19.5925707,4.83940211 L19.6652649,4.90616368 C20.0880882,5.32898697 20.110342,6.0006922 19.7320265,6.4497136 L19.6652649,6.52240775 L11.0938363,15.0938363 C10.671013,15.5166596 9.9993078,15.5389135 9.5502864,15.1605979 L9.47759225,15.0938363 L0.906163679,6.52240775 C0.459850202,6.07609427 0.459850202,5.35247715 0.906163679,4.90616368 Z" id="Arrow" fill="#000000" transform="translate(10.285714, 10.000000) scale(1, -1) rotate(-90.000000) translate(-10.285714, -10.000000) "></path>
            </g>
        </g>
    </g>
</svg>